<?xml version="1.0" encoding="UTF-8"?>
<svg version="1.1" xmlns="http://www.w3.org/2000/svg" width="512" height="512">
<path d="M0 0 C0.9005864 -0.00701431 1.80117279 -0.01402863 2.72904968 -0.02125549 C5.61759506 -0.03865309 8.50593541 -0.04510727 11.39453125 -0.046875 C12.87509003 -0.04788712 12.87509003 -0.04788712 14.38555908 -0.04891968 C28.85671684 -0.03318728 42.97697736 0.33212486 57.20703125 3.203125 C58.1088916 3.38004883 59.01075195 3.55697266 59.93994141 3.73925781 C86.19323089 9.00720258 110.55169103 17.69331745 134.20703125 30.203125 C134.85736328 30.54424316 135.50769531 30.88536133 136.17773438 31.23681641 C152.22097801 39.72076815 166.63087869 50.19625889 180.20703125 62.203125 C181.46 63.28980469 181.46 63.28980469 182.73828125 64.3984375 C193.81350538 74.1431964 204.15818037 84.54274914 213.20703125 96.203125 C213.97015625 97.13769531 214.73328125 98.07226562 215.51953125 99.03515625 C247.4868968 138.94313343 268.14084278 192.66457524 268.41015625 243.99609375 C268.41717056 244.89668015 268.42418488 245.79726654 268.43141174 246.72514343 C268.44880934 249.61368881 268.45526352 252.50202916 268.45703125 255.390625 C268.45804337 256.87118378 268.45804337 256.87118378 268.45907593 258.38165283 C268.44334353 272.85281059 268.07803139 286.97307111 265.20703125 301.203125 C265.03010742 302.10498535 264.85318359 303.0068457 264.67089844 303.93603516 C259.40295367 330.18932464 250.7168388 354.54778478 238.20703125 378.203125 C237.86591309 378.85345703 237.52479492 379.50378906 237.17333984 380.17382812 C228.6893881 396.21707176 218.21389736 410.62697244 206.20703125 424.203125 C205.48257812 425.0384375 204.758125 425.87375 204.01171875 426.734375 C194.26695985 437.80959913 183.86740711 448.15427412 172.20703125 457.203125 C171.27246094 457.96625 170.33789062 458.729375 169.375 459.515625 C129.46702282 491.48299055 75.74558101 512.13693653 24.4140625 512.40625 C23.5134761 512.41326431 22.61288971 512.42027863 21.68501282 512.42750549 C18.79646744 512.44490309 15.90812709 512.45135727 13.01953125 512.453125 C12.03249207 512.45379974 11.04545288 512.45447449 10.02850342 512.45516968 C-4.44265434 512.43943728 -18.56291486 512.07412514 -32.79296875 509.203125 C-33.6948291 509.02620117 -34.59668945 508.84927734 -35.52587891 508.66699219 C-61.77916839 503.39904742 -86.13762853 494.71293255 -109.79296875 482.203125 C-110.44330078 481.86200684 -111.09363281 481.52088867 -111.76367188 481.16943359 C-127.80691551 472.68548185 -142.21681619 462.20999111 -155.79296875 450.203125 C-156.62828125 449.47867187 -157.46359375 448.75421875 -158.32421875 448.0078125 C-169.39944288 438.2630536 -179.74411787 427.86350086 -188.79296875 416.203125 C-189.55609375 415.26855469 -190.31921875 414.33398438 -191.10546875 413.37109375 C-223.0728343 373.46311657 -243.72678028 319.74167476 -243.99609375 268.41015625 C-244.00310806 267.50956985 -244.01012238 266.60898346 -244.01734924 265.68110657 C-244.03474684 262.79256119 -244.04120102 259.90422084 -244.04296875 257.015625 C-244.04398087 255.53506622 -244.04398087 255.53506622 -244.04501343 254.02459717 C-244.02928103 239.55343941 -243.66396889 225.43317889 -240.79296875 211.203125 C-240.61604492 210.30126465 -240.43912109 209.3994043 -240.25683594 208.47021484 C-234.98889117 182.21692536 -226.3027763 157.85846522 -213.79296875 134.203125 C-213.45185059 133.55279297 -213.11073242 132.90246094 -212.75927734 132.23242188 C-204.2753256 116.18917824 -193.79983486 101.77927756 -181.79296875 88.203125 C-181.06851563 87.3678125 -180.3440625 86.5325 -179.59765625 85.671875 C-169.85289735 74.59665087 -159.45334461 64.25197588 -147.79296875 55.203125 C-146.85839844 54.44 -145.92382812 53.676875 -144.9609375 52.890625 C-105.05296032 20.92325945 -51.33151851 0.26931347 0 0 Z " fill="#346162" transform="translate(243.79296875,-0.203125)"/>
<path d="M0 0 C0.66128906 0.29648438 1.32257813 0.59296875 2.00390625 0.8984375 C2.98037109 1.28128906 2.98037109 1.28128906 3.9765625 1.671875 C16.85374595 7.25284119 24.80433019 18.86461785 30.609375 31.06640625 C35.33613074 43.14630077 35.42682336 54.95881167 35.36035156 67.71777344 C35.36114383 69.68848766 35.36324536 71.65920172 35.36654663 73.62991333 C35.3716471 78.94316662 35.35821712 84.25622375 35.34101963 89.56944561 C35.32591625 95.13696989 35.32715624 100.70449235 35.32635498 106.27203369 C35.32267271 115.6058688 35.30775014 124.93962989 35.28515625 134.2734375 C35.25617948 146.26882723 35.24592195 158.26415777 35.24147415 170.2595787 C35.23750245 180.57152439 35.22500814 190.88345713 35.21112728 201.19539356 C35.20702374 204.51388584 35.20410069 207.83237765 35.20133209 211.15087128 C35.19645454 216.34821726 35.18627752 221.54552697 35.17189407 226.74285507 C35.16735706 228.65493569 35.16452912 230.56702119 35.16348648 232.4791069 C35.1617512 235.0770709 35.15389649 237.67494291 35.14434814 240.27288818 C35.14521463 241.03929744 35.14608111 241.80570671 35.14697385 242.59534049 C35.11811526 247.78422849 35.11811526 247.78422849 34.00390625 248.8984375 C31.75390625 249.2734375 31.75390625 249.2734375 29.00390625 248.8984375 C25.35366515 245.92731102 23.38938773 243.36139835 22.00390625 238.8984375 C21.81934325 236.29018459 21.73534011 233.7911512 21.75234985 231.18496704 C21.74937971 230.41540346 21.74640958 229.64583987 21.74334943 228.85295618 C21.73571939 226.27770854 21.74219957 223.70268967 21.74853516 221.12744141 C21.74578462 219.27914272 21.74210433 217.43084521 21.73756409 215.58255005 C21.72945264 211.60203073 21.7272836 207.62156758 21.72951126 203.6410408 C21.73234738 197.33554766 21.71797882 191.03016632 21.70053101 184.72470093 C21.65354004 166.79386083 21.62958271 148.86302783 21.62304688 130.93212891 C21.61928478 121.02891746 21.60115946 111.12583213 21.56795251 101.22267473 C21.54783145 94.96711747 21.54532326 88.71188764 21.55623269 82.45631146 C21.55885802 78.54408254 21.54474657 74.63204024 21.52615166 70.71986008 C21.52087264 68.92009922 21.52225197 67.12030306 21.53118706 65.32055664 C21.60593247 48.9282326 19.85423712 33.79420443 8.34765625 21.06640625 C2.31890531 15.44999913 -4.48926285 12.01407342 -12.68457031 11.3371582 C-13.67829651 11.2531929 -14.67202271 11.1692276 -15.69586182 11.0827179 C-16.83447662 10.9914991 -16.83447662 10.9914991 -17.99609375 10.8984375 C-17.95888986 39.74958379 -17.89897414 68.60060609 -17.81219101 97.45164776 C-17.80426612 100.12116673 -17.7963735 102.79068574 -17.78857422 105.46020508 C-17.78663285 106.12370214 -17.78469147 106.7871992 -17.78269127 107.47080223 C-17.75364966 117.52781325 -17.73629839 127.58480009 -17.72509766 137.6418457 C-17.71207083 149.32161037 -17.6850796 161.00124605 -17.64148068 172.68093807 C-17.61888934 178.86241537 -17.60318169 185.04373372 -17.6042099 191.22525597 C-17.60495787 197.05048988 -17.58695165 202.87537271 -17.55492592 208.70051575 C-17.54644835 210.83167735 -17.54466232 212.96287842 -17.55029106 215.09404945 C-17.58702552 231.14828026 -16.51562171 244.84045494 -5.99609375 257.8984375 C-3.52595883 260.31721827 -0.96767897 262.14250078 2.00390625 263.8984375 C3.12925781 264.57326172 3.12925781 264.57326172 4.27734375 265.26171875 C10.86936146 268.87772846 17.65205308 270.51763259 25.00390625 271.8984375 C25.8646022 272.07243576 26.72529816 272.24643402 27.61207581 272.42570496 C31.8810477 273.0206881 36.04667558 273.04292386 40.35131836 273.0402832 C41.27419647 273.04375763 42.19707458 273.04723206 43.1479187 273.05081177 C45.14654378 273.05814497 47.14517688 273.06350328 49.14381218 273.06710243 C52.31994471 273.07430652 55.49592618 273.09000496 58.67201233 273.10844421 C67.70099749 273.1607104 76.7299002 273.20880894 85.7590332 273.22436523 C91.29044095 273.23451755 96.82146771 273.26402674 102.35272408 273.30568504 C104.44756738 273.31789989 106.54246474 273.32313394 108.63734245 273.32088661 C129.93818212 273.30366694 148.54578201 276.48645509 164.30078125 292.0234375 C173.72886213 302.05099173 178.48395307 312.04868573 178.34765625 325.8828125 C177.8357388 330.37372464 176.26348485 333.75256513 173.00390625 336.8984375 C167.83416156 340.12315908 163.67373766 340.32877863 157.77661133 340.28662109 C156.86681519 340.29187805 155.95701904 340.29713501 155.01965332 340.30255127 C152.02073845 340.31572193 149.02235753 340.30701977 146.0234375 340.296875 C143.92844034 340.29889745 141.83344386 340.30181031 139.7384491 340.30557251 C135.34794409 340.30999264 130.95762234 340.30357795 126.56713867 340.28955078 C120.96323087 340.27251208 115.35975585 340.28226843 109.75586414 340.30026817 C105.42761535 340.31115954 101.09946743 340.30763429 96.77121544 340.2998848 C94.70652909 340.29789481 92.64183334 340.30029946 90.57715797 340.30732346 C70.6070492 340.36032791 54.04890428 337.26186683 39.00390625 322.8984375 C35.35100908 318.77360563 32.05896689 314.48102846 29.00390625 309.8984375 C29.37890625 307.7109375 29.37890625 307.7109375 30.00390625 305.8984375 C35.79131827 305.55119278 40.06832281 305.50522388 45.00390625 308.8984375 C46.34978132 310.3031946 47.68153121 311.72153649 49.00390625 313.1484375 C55.92030966 320.35940664 65.88615361 325.71329808 75.9776001 326.01869202 C77.61950582 326.02158718 79.26142687 326.01894144 80.90332031 326.01196289 C81.80123291 326.01210892 82.69914551 326.01225494 83.62426758 326.0124054 C86.58938012 326.01170926 89.55442969 326.00393079 92.51953125 325.99609375 C94.5764767 325.99422851 96.6334226 325.99280511 98.69036865 325.99180603 C104.1023481 325.9879892 109.51430069 325.97816601 114.92626953 325.96710205 C120.44954057 325.95687002 125.97281596 325.95230457 131.49609375 325.94726562 C142.33204305 325.93654302 153.16797241 325.91947657 164.00390625 325.8984375 C164.02687421 324.45653637 164.04327091 323.01452955 164.05688477 321.57250977 C164.07163597 320.36800926 164.07163597 320.36800926 164.08668518 319.13917542 C163.83128177 312.22567578 158.63576748 305.67801691 154.0859375 300.78125 C143.10587123 290.8518092 131.21287592 287.75873508 116.75830078 287.74072266 C115.85799637 287.73564194 114.95769196 287.73056122 114.03010559 287.72532654 C112.08334432 287.71466676 110.13657113 287.70602955 108.18979263 287.69920731 C105.09284534 287.68733176 101.99603214 287.66785366 98.8991394 287.64608765 C90.09621758 287.58478783 81.29330911 287.53065807 72.49023438 287.49707031 C67.09387417 287.47593412 61.69775902 287.44047837 56.30154037 287.39631271 C54.26138093 287.38229697 52.22117813 287.3734635 50.18097305 287.37025833 C27.07879244 287.33014752 3.61832228 284.91605555 -14.34375 268.64453125 C-26.19395427 256.12197497 -31.14688927 240.36887663 -31.14326477 223.47250366 C-31.14694146 222.54308413 -31.15061815 221.6136646 -31.15440625 220.65608084 C-31.1653894 217.55245316 -31.16927766 214.44885901 -31.1730957 211.34521484 C-31.17936402 209.11586909 -31.18601115 206.88652437 -31.19300842 204.65718079 C-31.21399371 197.34958619 -31.22440029 190.04199149 -31.234375 182.734375 C-31.23842353 180.21747451 -31.24254048 177.70057413 -31.24672508 175.18367386 C-31.26358011 164.71952078 -31.27821863 154.25536881 -31.28547382 143.79120445 C-31.28738354 141.08085504 -31.28930392 138.37050563 -31.29125977 135.66015625 C-31.29174351 134.98655676 -31.29222725 134.31295727 -31.29272565 133.61894567 C-31.30103786 122.69105332 -31.32640187 111.76326999 -31.35884044 100.8354253 C-31.39189486 89.60850688 -31.40958777 78.38164192 -31.41311806 67.15466845 C-31.4154722 60.85390779 -31.42448122 54.55332004 -31.44957924 48.25260544 C-31.47278756 42.33133557 -31.47712236 36.4103534 -31.46681786 30.48904991 C-31.46632075 28.31418211 -31.47269234 26.13930046 -31.4863739 23.96447563 C-31.50398622 20.99943669 -31.49703931 18.0354425 -31.48384094 15.07040405 C-31.49481019 14.20649783 -31.50577943 13.34259162 -31.51708108 12.45250642 C-31.4739331 8.44806043 -31.3133517 6.40520806 -29.14212322 2.937006 C-21.40280879 -4.4147675 -9.45400205 -3.79552937 0 0 Z " fill="#F8FAFA" transform="translate(195.99609375,76.1015625)"/>
<path d="M0 0 C0.66 0.33 1.32 0.66 2 1 C-0.31 3.31 -2.62 5.62 -5 8 C-5 5 -5 5 -2.5 2.3125 C-1.675 1.549375 -0.85 0.78625 0 0 Z " fill="#E5F2F1" transform="translate(171,76)"/>
</svg>
