<?xml version="1.0" encoding="UTF-8"?>
<svg version="1.1" xmlns="http://www.w3.org/2000/svg" width="698" height="698">
<path d="M0 0 C230.34 0 460.68 0 698 0 C698 230.34 698 460.68 698 698 C467.66 698 237.32 698 0 698 C0 467.66 0 237.32 0 0 Z " fill="#F5F5F5" transform="translate(0,0)"/>
<path d="M0 0 C0.64888184 0.34111816 1.29776367 0.68223633 1.96630859 1.03369141 C20.24887675 10.69945694 36.47603561 23.02343773 51.72265625 36.9453125 C53.6737616 38.70565798 55.66013544 40.39184323 57.6875 42.0625 C60.80704527 44.71774085 63.434292 47.64997108 66.078125 50.7734375 C67.40565247 52.31142664 68.77347943 53.81521393 70.171875 55.2890625 C115.15494465 102.77119158 136.46004664 169.29005056 135.22265625 233.7734375 C134.56264352 255.39134182 131.71370968 277.39356434 125 298 C124.4907484 299.6275613 123.98164546 301.25516912 123.47265625 302.8828125 C115.55600154 327.79259984 104.2734427 351.73094889 89 373 C88.54544434 373.64243652 88.09088867 374.28487305 87.62255859 374.94677734 C78.81110061 387.34327449 68.75747849 398.27784984 58 409 C56.86691406 410.16789063 56.86691406 410.16789063 55.7109375 411.359375 C49.82035173 417.38786746 43.69072297 422.87784094 37 428 C36.37125977 428.48339844 35.74251953 428.96679688 35.09472656 429.46484375 C8.0734499 450.0549282 -23.0543121 465.55238772 -56 474 C-56.96123779 474.2489502 -56.96123779 474.2489502 -57.94189453 474.50292969 C-66.14973728 476.6066951 -74.38414237 478.3388203 -82.75 479.6875 C-83.84671021 479.86647827 -83.84671021 479.86647827 -84.96557617 480.04907227 C-96.06728558 481.74805026 -107.21982153 482.19542489 -118.4375 482.1875 C-119.64817139 482.18669434 -120.85884277 482.18588867 -122.10620117 482.18505859 C-132.37904959 482.11618128 -142.50344893 481.44319658 -152.70458984 480.26025391 C-154.70232111 480.03375087 -156.70451697 479.84732988 -158.70703125 479.66796875 C-186.97873339 476.72771173 -215.15250004 466.58704693 -240 453 C-241.00015137 452.46076904 -241.00015137 452.46076904 -242.02050781 451.91064453 C-260.920657 441.68895427 -278.58717795 429.56271629 -294.1328125 414.69140625 C-296.11365634 412.83200379 -298.06764836 411.0917984 -300.1640625 409.37890625 C-302.45273979 407.45906539 -304.34451674 405.65155106 -306.25 403.375 C-308.18063919 401.09945359 -310.12119329 398.87227924 -312.17578125 396.70703125 C-339.03504395 368.3531451 -357.07098761 332.19090929 -368 295 C-368.39372803 293.67742187 -368.39372803 293.67742187 -368.79541016 292.328125 C-370.46464315 286.60118132 -371.82943627 280.84854652 -373 275 C-373.29197266 273.55657227 -373.29197266 273.55657227 -373.58984375 272.08398438 C-386.11960008 207.1012285 -370.85583345 138.34048503 -334.35009766 83.52246094 C-327.23365343 73.10474793 -319.40042204 63.4005417 -311 54 C-310.10252978 52.979461 -309.20538541 51.95863533 -308.30859375 50.9375 C-304.10826367 46.21773978 -299.86278146 41.77476749 -295.01953125 37.71484375 C-293.63064929 36.53550297 -292.27491735 35.31635065 -290.94921875 34.06640625 C-272.66381021 16.85475227 -250.67681217 3.57749749 -228 -7 C-227.3723877 -7.29712891 -226.74477539 -7.59425781 -226.09814453 -7.90039062 C-154.79762485 -41.42350308 -69.06475057 -36.82871276 0 0 Z " fill="#4ABB36" transform="translate(470,123)"/>
<path d="M0 0 C2.4363403 1.91182398 4.75632367 3.90298495 7.06640625 5.96484375 C8.29037109 6.97611328 8.29037109 6.97611328 9.5390625 8.0078125 C26.79491522 22.64995028 39.65731743 44.43929823 41.75390625 67.15234375 C41.86827972 68.75581501 41.976376 70.35982165 42.06640625 71.96484375 C40.77089844 72.12339844 39.47539062 72.28195312 38.140625 72.4453125 C11.50435852 75.87109334 -14.90582621 82.77494133 -34.78515625 101.921875 C-36.93359375 103.96484375 -36.93359375 103.96484375 -39.4375 105.890625 C-54.03885875 118.02414847 -63.15464333 139.79107453 -65.59765625 158.13671875 C-66.35149954 166.72702604 -66.6481841 175.34802488 -66.93359375 183.96484375 C-67.63218506 183.87396484 -68.33077637 183.78308594 -69.05053711 183.68945312 C-77.00077209 182.67094556 -84.95812593 181.7625087 -92.93359375 180.96484375 C-93.81611816 180.87541504 -94.69864258 180.78598633 -95.60791016 180.69384766 C-106.04631983 179.76149751 -113.12230341 181.55084617 -121.94238281 187.61132812 C-125.10382381 189.76030175 -128.34445038 191.78209643 -131.57861328 193.81933594 C-133.29643278 194.90444403 -135.00852954 195.99867254 -136.71435547 197.10253906 C-137.88248779 197.85422363 -137.88248779 197.85422363 -139.07421875 198.62109375 C-139.77063477 199.07291016 -140.46705078 199.52472656 -141.18457031 199.99023438 C-142.93359375 200.96484375 -142.93359375 200.96484375 -144.93359375 200.96484375 C-144.27556811 193.98977201 -142.99107819 187.4171599 -141.30664062 180.62695312 C-140.12237109 175.60790603 -139.59163321 171.12788727 -139.93359375 165.96484375 C-141.58234291 163.76651153 -142.7950195 162.59054725 -144.93359375 160.96484375 C-166.69003175 144.1420218 -184.09009719 123.18175226 -188.5234375 95.20703125 C-191.71673911 69.96474236 -186.56183049 46.04139177 -171.43359375 25.40234375 C-169.95798157 23.56993415 -168.45877805 21.75620332 -166.93359375 19.96484375 C-166.22589844 19.10761719 -165.51820313 18.25039062 -164.7890625 17.3671875 C-124.32508184 -29.8043359 -49.91524565 -34.62828627 0 0 Z " fill="#FEFEFE" transform="translate(371.93359375,228.03515625)"/>
<path d="M0 0 C1.42505859 0.30744141 1.42505859 0.30744141 2.87890625 0.62109375 C21.28897921 5.03841379 36.63969789 14.84610705 50 28 C50.7321875 28.70769531 51.464375 29.41539062 52.21875 30.14453125 C61.05084015 39.30957718 67.50241012 51.82186323 71 64 C71.35707031 65.17949219 71.71414063 66.35898437 72.08203125 67.57421875 C73.39793587 72.94996312 73.29142028 78.30705383 73.25 83.8125 C73.25773438 84.82892578 73.26546875 85.84535156 73.2734375 86.89257812 C73.24813913 96.81586379 71.99889962 105.95208727 67.8125 115 C67.49917725 115.68513672 67.18585449 116.37027344 66.86303711 117.07617188 C61.72718537 128.0622268 55.34474523 136.07277268 46.59790039 144.43164062 C40.59312195 149.94706254 40.59312195 149.94706254 37.6015625 157.32421875 C37.65681007 162.89501576 38.51673432 167.60150686 40.34375 172.87109375 C41 175 41 175 41 178 C35.5900861 175.94981438 30.43323063 173.36865312 25.23828125 170.83398438 C17.61521119 167.18435526 10.05845324 165.23571021 1.796875 168.1171875 C1.19536621 168.34019531 0.59385742 168.56320312 -0.02587891 168.79296875 C-21.25332966 176.39557788 -48.82193401 174.11675575 -69.01171875 164.72265625 C-77.7837152 160.42639173 -85.73743627 155.57521395 -93 149 C-93.825 148.31550781 -94.65 147.63101563 -95.5 146.92578125 C-112.6200886 132.38936456 -123.54098503 110.86111294 -125.4765625 88.4609375 C-126.49561027 68.35011764 -119.17219648 48.66937884 -106.19140625 33.40234375 C-91.37293111 17.15749132 -73.82995682 4.63272396 -52 0 C-50.977854 -0.21994629 -50.977854 -0.21994629 -49.93505859 -0.44433594 C-32.88888562 -4.00599419 -16.94212167 -3.95500126 0 0 Z " fill="#FEFEFE" transform="translate(442,314)"/>
<path d="M0 0 C3.5677811 2.35149209 5.84221079 4.99692157 7.75 8.8125 C8.34810582 14.91317939 7.20869755 17.95162777 3.75 22.8125 C-0.11557781 26.44380037 -4.50643698 26.37128876 -9.5859375 26.234375 C-13.82923292 25.5624162 -15.41891652 24.0065429 -18.25 20.8125 C-20.7786261 16.56020836 -20.93033451 12.6504343 -20.25 7.8125 C-15.91326445 -0.86097109 -8.95063053 -3.27042269 0 0 Z " fill="#48B73F" transform="translate(264.25,274.1875)"/>
<path d="M0 0 C4.2035282 2.46798057 7.13411169 5.47610099 9 10 C9.60081551 16.4888075 8.14089055 20.37568255 4.0625 25.375 C-0.81294219 27.96196933 -5.60847452 27.8535974 -11 27 C-14.29368506 25.40668772 -16.17099727 23.09277633 -18.375 20.1875 C-19.82134634 15.12528781 -19.68806738 11.37613475 -17.375 6.75 C-12.45128291 1.04885389 -7.52504336 -1.75061773 0 0 Z " fill="#4BBA3C" transform="translate(351,273)"/>
<path d="M0 0 C4.06219391 0.04520725 6.5258907 0.61209239 9.75 3.25 C12.57368571 7.48552856 12.41653757 11.27477314 11.75 16.25 C9.95353146 19.18423195 8.8058929 20.72205355 5.75 22.25 C0.83003072 22.78118252 -3.02327597 23.00105553 -7.3125 20.375 C-10.70839982 16.65046472 -10.63449302 13.62722222 -10.61328125 8.734375 C-10.06933598 5.0144912 -8.16576392 3.45460199 -5.25 1.25 C-3.68966377 -0.31033623 -2.16052864 0.04292441 0 0 Z " fill="#4FBD39" transform="translate(371.25,361.75)"/>
<path d="M0 0 C3.0717718 1.71077974 5.40485654 3.80971307 7 7 C7.37766377 12.00404498 7.11200434 14.99885156 4 19 C2.09180914 21.12836673 0.7416826 21.88589498 -2.08203125 22.3203125 C-6.11881639 22.52114758 -8.4092612 22.3519295 -11.9375 20.25 C-14.78206465 17.14683856 -15.82909642 15.31026074 -16.375 11.125 C-15.89861498 7.15512486 -14.46959574 5.10463464 -12 2 C-7.97818385 -0.68121076 -4.72763609 -0.81344335 0 0 Z " fill="#53C038" transform="translate(448,362)"/>
</svg>
